<svg xmlns="http://www.w3.org/2000/svg" viewBox="0 0 229.22 244.67" class="h-16 w-16">
    <defs>
        <style>.cls-11,.cls-6{fill:#415381}.cls-11,.cls-9{stroke:#fff;stroke-miterlimit:10}.cls-7,.cls-9{fill:#919fd1}.cls-3{fill:#259490}.cls-4{fill:#fefefe}.cls-5{fill:#fff}</style>
    </defs>
    <circle cx="113.71" cy="95.45" r="94.7" stroke-width="1.5" stroke-miterlimit="10" stroke="#fff" fill="#415381" id="Blue_circle" data-name="Blue circle"></circle>
    <circle cx="113.93" cy="95.45" r="48.23" fill="#919fd1" stroke-width="1.5" stroke-miterlimit="10" stroke="#fff" id="Globe_background" data-name="Globe background"></circle>
    <g id="Globe">
        <path class="cls-3" d="M166.25 131.95l2.92 3.3a48.29 48.29 0 0012-14.84l-2.64-1.86-2.2 2.69-3.38.19-.17-2.16-2.3.32-1.76 3-6.25 1.52-.2 1.23-2.74 5.36 1.9 2.14 4.67-.92z" transform="translate(-25.07 -3.13)"></path>
        <path class="cls-3" d="M82.91 77.18l-6.43-5.42 1 9.44 5.43-4.02z"></path>
        <path class="cls-3" d="M73.36 90.55l.36 4.53 4.46-.58 5.4-4.46 8.57 2.74 1.65 5.33-5.11 1.29-8.35.79-4.03 6.92 2.95 10.22 5.33 1.94 4.32.51 2.59 6.48 3.74.65 1.08 4.03 2.74.86 1.58 4.39 1.73.44-1.29-10.8 7.12-16.71-3.89-.57-3.16-9.65h4.46l3.17 4.24 3.89-3.52 4.32.43 3.17 4.61 1.72-3.17 3.82-.29 1.87 1.3 4.18 3.81 1.8-1.08-1.51-2.88-.29-2.44 2.16-3.17 2.81-.87 1.15-1.29.5-6.84 3.39-2.09.64-5.04 3.03-1.37 3.89 6.12.72-.43.36-5.4 3.45-2.67-1.01-2.73-3.38-.51-1.37-3.24-2.81.72-2.01-2.44-1.37.36-3.24 1.8-3.31-4.32-5.55 1.72-1.36-3.52 2.23-6.7-1.44-1.37-3.89 1.8-5.33 3.24-.14 2.38-5.62-.65-4.61.22-6.62 6.4-4.83.8-1.94-4.32 1.58-2.16-1.51-1.59-4.89 1.87-5.98 4.47-.07 4.68 1.51-.15 1.3-2.95 2.45 2.02-2.89 10.51-6.55-1.08-3.38 3.02.36 3.53-4.82 1.88z"></path>
        <path class="cls-4" d="M126.86 145.53c3.5 1.64 18 2 23.74-.25l-2.7-2.82-3.26 1.32-3-1.87-4.84 2.26-3.41-1.89-6.47 3.26zm22.76-93.7c-6.45-2-16.45-2.24-25.22.58l6.69 4.36 4.43-1.35 2.93 2.44 4.55-2.64 4.37.45z" transform="translate(-25.07 -3.13)"></path>
    </g>
    <g id="Layer_1" data-name="Layer 1">
        <path class="cls-5" d="M44.23 226.69q0 5.56-2.46 8.82a7.86 7.86 0 01-6.61 3.26 8.54 8.54 0 01-7.51-3.69l-.11 3.25h-2.47v-33.75h2.61V218a8.26 8.26 0 017.43-3.89 7.93 7.93 0 016.67 3.22q2.45 3.22 2.45 9zm-2.64-.46q0-4.7-1.82-7.26a6 6 0 00-5.14-2.56 7.24 7.24 0 00-4.28 1.24 7.55 7.55 0 00-2.66 3.64V232a7 7 0 007 4.48 5.9 5.9 0 005.09-2.57q1.82-2.57 1.82-7.69zM61 216.8a9.82 9.82 0 00-1.78-.15 6.42 6.42 0 00-4.14 1.35 7.52 7.52 0 00-2.43 4v16.33H50v-23.77h2.6v3.78a7 7 0 016.7-4.22 4.32 4.32 0 011.74.29zM65 207.69a1.76 1.76 0 01.48-1.26 1.72 1.72 0 011.32-.51 1.76 1.76 0 011.33.51 1.74 1.74 0 01.49 1.26 1.7 1.7 0 01-.49 1.24 1.78 1.78 0 01-1.33.5 1.74 1.74 0 01-1.32-.5 1.72 1.72 0 01-.48-1.24zm3.1 30.64h-2.62v-23.77h2.64zM74.2 226.22q0-5.58 2.47-8.84a8 8 0 016.71-3.26 8.27 8.27 0 017.39 3.88l.13-3.43h2.46v23.29a10.07 10.07 0 01-2.57 7.27 9.2 9.2 0 01-7 2.68 10.57 10.57 0 01-4.74-1.11 9.19 9.19 0 01-3.55-3l1.5-1.55a8.33 8.33 0 006.64 3.43 6.75 6.75 0 005.14-1.94 7.75 7.75 0 001.91-5.39v-3a8.5 8.5 0 01-7.36 3.52 7.93 7.93 0 01-6.64-3.3q-2.5-3.3-2.5-8.9zm2.66.46a12.4 12.4 0 001.82 7.17 5.9 5.9 0 005.14 2.63 7 7 0 006.88-4.35v-11.05a7.5 7.5 0 00-2.7-3.48 7.17 7.17 0 00-4.17-1.2 6 6 0 00-5.16 2.6q-1.81 2.61-1.81 7.69zM102.83 218.58a9.28 9.28 0 013.32-3.3 8.69 8.69 0 014.42-1.17q3.82 0 5.69 2.15t1.89 6.46v15.6h-2.61v-15.61a7.27 7.27 0 00-1.35-4.75 5.3 5.3 0 00-4.25-1.56 6.65 6.65 0 00-4.32 1.53 9 9 0 00-2.78 4.12v16.28h-2.61v-33.75h2.61zM129 208.47v6.09h4.92v2.15H129v15.86a5 5 0 00.71 2.95 2.77 2.77 0 002.38 1 16.36 16.36 0 002.13-.22l.11 2.13a8.59 8.59 0 01-2.81.37 4.69 4.69 0 01-3.93-1.57 7.39 7.39 0 01-1.23-4.62v-15.9H122v-2.15h4.37v-6.09zM156 232.86l.4 2 .53-2.15 5.71-18.19h2.24l5.65 18 .62 2.5.51-2.31 4.88-18.24h2.72l-6.92 23.77h-2.24l-6.1-18.76-.29-1.3-.29 1.32-6 18.83h-2.24l-6.9-23.77H151zM182.79 226.09a14 14 0 011.33-6.17 10 10 0 019.26-5.8 9.78 9.78 0 017.69 3.33 12.83 12.83 0 012.95 8.82v.55a14.1 14.1 0 01-1.33 6.21 9.93 9.93 0 01-3.75 4.25 10.27 10.27 0 01-5.52 1.49 9.79 9.79 0 01-7.68-3.33 12.8 12.8 0 01-3-8.82zm2.64.72a10.79 10.79 0 002.21 7 7.47 7.47 0 0011.56 0 11.14 11.14 0 002.21-7.22v-.5a12.13 12.13 0 00-1-5 8.13 8.13 0 00-2.84-3.5 7.25 7.25 0 00-4.17-1.24 7 7 0 00-5.73 2.76 11.16 11.16 0 00-2.22 7.22zM220.43 216.8a9.82 9.82 0 00-1.78-.15 6.42 6.42 0 00-4.16 1.37 7.51 7.51 0 00-2.43 4v16.33h-2.62v-23.79H212v3.78a7 7 0 016.7-4.22 4.33 4.33 0 011.74.29zM227.53 238.33h-2.64v-33.75h2.64zM233.62 226.22q0-5.54 2.47-8.82a8 8 0 016.71-3.29 8.27 8.27 0 017.34 3.8v-13.33h2.62v33.75h-2.46l-.11-3.16a8.49 8.49 0 01-7.43 3.6 7.93 7.93 0 01-6.62-3.31q-2.52-3.31-2.52-8.93zm2.66.46a12.4 12.4 0 001.82 7.17 5.9 5.9 0 005.14 2.63 7.08 7.08 0 006.9-4.28V221a7 7 0 00-6.86-4.64 6 6 0 00-5.16 2.6q-1.85 2.65-1.85 7.73z" transform="translate(-25.07 -3.13)"></path>
    </g>
    <g id="Guardianship">
        <path class="cls-5" d="M121 160.26l-.59-.15c-.17 0-.06-.39.2-.31a2.9 2.9 0 00.56.09zM121.21 161.13c0 .32.18.48.54.62a3.65 3.65 0 001.05-.24c.39-.21 1.5-2.54 1-2.84-.19-.1-.65-.2-.88-.29-.68-.19-.76.15-1.05.58a9.17 9.17 0 00-.66 2.17z" transform="translate(-25.07 -3.13)"></path>
        <path class="cls-5" d="M123.88 160.46c.77 0 .52.67 1.16.63.25 0 .52 0 .71.24.42.62 1 .29 1.37 1a1 1 0 00.62.31 2.57 2.57 0 00.28-.46 21.3 21.3 0 001.06-2.41 3.55 3.55 0 00-.42-.12c-.38-.19-.63 0-1-.21a.69.69 0 00-.36 0h-.25c-.42 0-.56-.31-.91-.5s-.8.2-1.17 0l-.12-.07-.27-.16c-.35-.22-.21-.38-.58-.24.58.53-.12 1.99-.12 1.99z" transform="translate(-25.07 -3.13)"></path>
        <path class="cls-6" d="M122.22 160.12c-.27-.1.06-.89.33-.78s-.06.88-.33.78z" transform="translate(-25.07 -3.13)"></path>
        <path class="cls-7" d="M119.69 162.48l3.44 1.19c2.72 1.48 4.6.85 7.79-.48l1.16 1.77c-1 .66-6.86 1.76-8.82.83a76.65 76.65 0 01-2.43 14.12c-5.29-.59-7.32-.25-9.14-3.4 2.85-2.78 5.66-5.54 6.35-7.88.73-1.15-1.46-2.65.86-4.6-2 .71-4.44 2.84-6.89 5.16l-1.1-1.51c2.9-2.21 5.47-4.44 7.26-5.05a2.46 2.46 0 011.52-.15z" transform="translate(-25.07 -3.13)"></path>
        <path class="cls-6" d="M95.66 161.71l1.34-1.34-1.32-.47-.02 1.81z"></path>
        <path class="cls-6" d="M119.72 171.41c-.13 0-.24-.15-.28-.32a.29.29 0 01.2-.32.25.25 0 01.32.2.47.47 0 01-.24.44zM120.16 169.73c-.13 0-.24-.15-.28-.32a.29.29 0 01.2-.32.26.26 0 01.32.2.47.47 0 01-.24.44zM120.3 168c-.13 0-.24-.15-.28-.32s.2-.32.2-.32.28 0 .32.2a.47.47 0 01-.24.44z" transform="translate(-25.07 -3.13)"></path>
        <path class="cls-5" d="M113.23 178.55a4.58 4.58 0 001.66.86l-.89 1.2-1.4 4.48-.95-.35 1-4.63z" transform="translate(-25.07 -3.13)"></path>
        <path class="cls-5" d="M92.2 176.57l2.01.23-1.02 3-1.46 3.71-.9-.33 1.08-3.64.29-2.97z"></path>
        <path class="cls-5" d="M112.23 164.29c0 .32.18.48.54.62a3.65 3.65 0 001.05-.24c.39-.21 1.5-2.54 1-2.84-.19-.1-.65-.2-.88-.29-.68-.19-.76.15-1.05.58a9.17 9.17 0 00-.66 2.17z" transform="translate(-25.07 -3.13)"></path>
        <path class="cls-6" d="M113.72 163.3c-.27-.1.06-.89.33-.78s-.05.88-.33.78z" transform="translate(-25.07 -3.13)"></path>
        <path class="cls-5" d="M114.53 163.91l.58.34s.1.08.19-.1 0-.22 0-.22l-.58-.34zM107.52 161.57l3.6 3.06 2.81 1.33a24.42 24.42 0 004.93 1l-.12 2-5.18-1.96a47.67 47.67 0 00-1.48 6.32 31.15 31.15 0 00-4.55-1.61 34 34 0 003-6.16c-1-1.52-2.72-1.2-3.82-2.4zM108.06 172c-1.74 2.82-3.5 5.93-5.33 9.35l2.28.85a102 102 0 014.34-9.77zM110 172.69c-1 3.34-2.2 6.71-3.55 10.1l2.27.84c1-3.6 1.81-7.11 2.5-10.48z" transform="translate(-25.07 -3.13)"></path>
        <path class="cls-6" d="M87.02 162.8l.1.35.38-.18-.11-.48-.37.31z"></path>
        <path class="cls-6" d="M112 166.72a23.39 23.39 0 01-2.19 4.53.68.68 0 001 .37z" transform="translate(-25.07 -3.13)"></path>
        <path class="cls-5" d="M111.17 156.33l.58.34s.1.08.19-.1 0-.22 0-.22l-.58-.34zM109.91 152.4l-1.51-1.4s-.19-.13-.29 0a.2.2 0 000 .29l1.62 1.32a.24.24 0 00.22 0c.05-.11-.04-.21-.04-.21zM109.13 153.23l-1.67-1.23a.23.23 0 00-.3.09.22.22 0 00.06.31l1.77 1.09a.18.18 0 00.21 0c.08-.1-.06-.2-.06-.2zM108.62 154.12l-1.83-.92a.27.27 0 00-.29.13.22.22 0 00.13.29l1.93.78s.16 0 .2-.06-.1-.19-.1-.19zM111 153.15a1.29 1.29 0 01.37 1.69 4.42 4.42 0 01-.26.6A4.51 4.51 0 01110 157c-.18.13-.39.16-.78 0-.83-.41-.22-2.07 0-2.66.42-1 .93-1.73 1.84-1.22z" transform="translate(-25.07 -3.13)"></path>
        <path class="cls-6" d="M110.52 154.27l-.19.48a.23.23 0 00.09.31.26.26 0 00.3-.13l.19-.52a.2.2 0 00-.09-.28.21.21 0 00-.3.13z" transform="translate(-25.07 -3.13)"></path>
        <path class="cls-7" d="M110.29 158.7l1.86 6.83-2 1-.91-6c-1.2 1.95-1.36 3.45-2.41 6.23a46.79 46.79 0 00-5.53-2.13c1.72-2.82 3.61-4.94 4.13-6.41a21 21 0 00-4-6.47l2.36-.76 2.81 5.85a8.71 8.71 0 003.69 1.86zM101.51 165.13a29.65 29.65 0 015 1.84 47.6 47.6 0 00-3.23 6.58l-2.95 6.94-2.44-.91c2.18-4.39 5-9.3 5.67-11.22.43-1.07-.29-1.5-1.09-.61l-3.25 3.79c-.81 1.56-1 5.17-1.58 8l-2.42-.91a59.65 59.65 0 012.11-8.09z" transform="translate(-25.07 -3.13)"></path>
        <path class="cls-6" d="M105.48 163c-.13 0-.18-.22-.17-.38a.29.29 0 01.29-.24.25.25 0 01.24.29c-.01.11-.23.33-.36.33zM106.42 161.52c-.13 0-.18-.22-.17-.38a.29.29 0 01.29-.24.26.26 0 01.24.29c-.01.13-.23.34-.36.33zM107.07 159.94c-.13 0-.18-.22-.17-.38s.29-.24.29-.24.26.12.24.29-.23.34-.36.33z" transform="translate(-25.07 -3.13)"></path>
        <path class="cls-5" d="M120.13 145c-6.42 2-14.78 4.2-23.85 6.53l.8 1.82c5.38-2.13 14.13-4.77 23.39-7.48zM97.17 153.82c-2.82 8.31-5.59 16.14-8.27 23.23l1.9.94c2.37-7 4.91-15.11 7.54-23.8z" transform="translate(-25.07 -3.13)"></path>
        <path class="cls-5" d="M96.16 141.88l13.7 20.75-1.45 1.08-12.99-21.35.74-.48z"></path>
        <path class="cls-5" d="M132.48 166.73c-4 8-7.55 15.63-10.8 22.85l1.71.9c3.33-8.32 6.65-16.17 9.94-23.35zM91.27 177.35l-.27.72q15.12 5.13 30.39 11.32l.17-.46q-15.36-6.18-30.29-11.58z" transform="translate(-25.07 -3.13)"></path>
    </g>
    <g id="Boy">
        <path d="M60.54 26.72l-.85.93s-.13.2-.4-.06-.13-.39-.13-.39l.85-.93z" transform="translate(-25.07 -3.13)" fill="#425381" stroke-miterlimit="10" stroke="#fff"></path>
        <path class="cls-5" d="M60.63 19l1.89-3.37s.26-.33.53-.13a.38.38 0 01.13.53L61 19.27s-.2.2-.39.13.02-.4.02-.4z" transform="translate(-25.07 -3.13)"></path>
        <path class="cls-4" d="M85.87 21.25l7.72 1.87c1.25.32 3.36 1.17 3.36 1.17a8.24 8.24 0 012.17-1.07 5.45 5.45 0 011.85.58 29.68 29.68 0 01-1 3.3c-.2.46-.85.27-1.25.27a7.51 7.51 0 01-2.24-1h-1.63a19.68 19.68 0 01-2-.38 43.73 43.73 0 00-6.2-1.35c-.26 0-.59-.06-.86-.06z" transform="translate(-25.07 -3.13)"></path>
        <path class="cls-9" d="M85 21l-.11 3.56a11.93 11.93 0 00-8.08 4l7.68 7.27-9.17 9.86L65 38.42l-.52.66 4.89 3.53-5.77 2.53c-.2-1.18-1.83-10.33-1.25-11.39a15.33 15.33 0 011.83-2.05c2.23-2.45 6.74-7.74 9-9.14a18 18 0 012.5-1.2 51.68 51.68 0 019.34-3.08L85 21z" transform="translate(-25.07 -3.13)"></path>
        <path class="cls-4" d="M70.07 34.57a25.6 25.6 0 011.66 3.28 17.31 17.31 0 001.92 2.43c.2.26 1.45.26 1.71-.21.91-1.72 4.46-3.71 5.77-5.3A13.43 13.43 0 0185 31.46L83.47 28l-.52.6a35.11 35.11 0 01-3.21 3A43.86 43.86 0 0074 37.52l-1.52-1.31a29.42 29.42 0 00-2.71-2.29 3 3 0 00.33.66z" transform="translate(-25.07 -3.13)"></path>
        <path class="cls-7" d="M104.72 16a2 2 0 012.73-1.38c1.37.3 10.19 2.68 11.18 4.42a3.34 3.34 0 01-.06 2.43c-.59 2.43-4.25 15-4.62 16.12-.45 1.52-2 1.91-3.94 1.16-1.67-.6-8.74-2.31-9.51-3l-.23-.23-.23-.23c-.92-.91-.62-2.27-.25-3.42.67-2.43 4.7-15.21 4.7-15.21a3.17 3.17 0 00.3-.76z" transform="translate(-25.07 -3.13)"></path>
        <path class="cls-5" d="M62.48 20.06L64.77 17a.43.43 0 01.59 0 .41.41 0 01.07.59l-2.55 2.91a.33.33 0 01-.39.07c-.2-.13 0-.4 0-.4zM63.87 21.37l2.75-2.65a.5.5 0 01.59.06.41.41 0 01-.06.59l-3 2.45s-.26.13-.4 0 .06-.4.06-.4z" transform="translate(-25.07 -3.13)"></path>
        <path class="cls-4" d="M85.92 81.45l5.25-3.85-1.33-2c-.8-1.25-1.66-2.69-1.86-3.15a65.74 65.74 0 00-4.25-7.22c-1.13-1.38-.94-4-1.15-5.72-.2-1.25-.29-5.79-.31-8.1a6.64 6.64 0 012.28-5.28c1.38-1 3.56.57 5 .83a28.65 28.65 0 014 1.3c4.82 1.69 4.69 1.82 9.35.48a6.15 6.15 0 011.45-.27c1.71-.07 6.84-1.95 8.75-2.55 1.64-.54 3.35-.94 5.06-1.34l-4.57-5a5.34 5.34 0 01-1.38.67l-.92.33a7.6 7.6 0 00-1.58.67c-1.05.66-6.58 2.08-8 2.54-2.76.87-3.75-.11-5.74-1.42a1.65 1.65 0 00-.46-.26c-1.25-.65-8.91-4.5-10.5-5.28l-9.17 9.6c0 .72.15 3.16.15 4.35a37.52 37.52 0 00.64 4.22c.75 5.07 1 8.16 2.9 13.09a85 85 0 006.19 12.81c.13.2.13.39.27.59z" transform="translate(-25.07 -3.13)"></path>
        <path class="cls-4" d="M42.15 28.82l1.12.13-.07-1.32-1.52-.26.47 1.45z"></path>
        <path class="cls-4" d="M64.28 60.29c.92 0 2.5 0 2.77-.08s.85-.33 1.56-3.1 1.88-5.61 2.07-6.6a36.18 36.18 0 00.57-4 20.1 20.1 0 00-1.14-3.35l-3.22 1.33a3.32 3.32 0 01.47.85A4.6 4.6 0 0168 47c0 .59-1.27 8.9-1.47 9.43a2.64 2.64 0 01-1 .93l-.59.33a2.91 2.91 0 00-1 2.24l.33.33zM60.57 23l.61.83a.42.42 0 010 .61.48.48 0 01-.61-.07l-.57-.86s-.31-.3 0-.53a.48.48 0 01.61.07z" transform="translate(-25.07 -3.13)"></path>
        <path class="cls-7" d="M105.35 18.91a2.75 2.75 0 01-.26.66c-.19.59-3.5 11.08-4.08 13.13-.13.53-.45 1.58 0 2.11l.4.33c.46.39 6.79 2 8 2.39 1.52.58 2.11.12 2.3-.47.32-.92 3.49-11.81 4-13.92.39-1.71.32-1.38-.67-2.17-.79-.59-6.53-2.4-8.31-2.79-.86-.19-1.12-.06-1.38.67z" transform="translate(-25.07 -3.13)"></path>
        <path class="cls-9" d="M59.06 21a2.4 2.4 0 00.28 3.23 8.26 8.26 0 00.8.92 8.41 8.41 0 003 2.22c.4.13.79.06 1.38-.47 1.25-1.19-.74-3.82-1.47-4.73-1.33-1.64-3-2.22-3.89-1.17z" transform="translate(-25.07 -3.13)"></path>
        <path d="M60.7 22.56l.61.83a.41.41 0 11-.6.53l-.61-.83s-.31-.3 0-.53.52-.11.61 0z" transform="translate(-25.07 -3.13)" fill="none" stroke="#425381" stroke-miterlimit="10"></path>
    </g>
    <g id="College">
        <path class="cls-5" d="M70.3 75.78a93.45 93.45 0 01-20 5l-.3 2.53c12.26 1 24.32 2.5 37.85 4.57l.44-2.81a85.87 85.87 0 01-17.99-9.29zM50.75 83.94l-.18 1.5q17.75 1.26 36.1 4l-.27-1.23zM55.69 86.55c-.35 4.73-1.18 10.73-2 16.43l5.23.61c.3-3.64.38-6.14 1.83-16.6-1.63-.25-3.34-.25-5.06-.44zM65.87 87.6c-.49 5.35-1.24 11.43-2 16.57 1.78.21 3.69.48 5.23.63.33-5.16 1.05-11 1.83-16.59zM76.21 88.85c-.56 4.87-1.52 10.57-2 16.48 1.67.2 3.37.49 5.19.71.59-5.37 1-11.31 1.57-16.53-1.53-.22-2.91-.3-4.76-.66zM82.71 109.49c-12.13-1.62-23.58-3-33.36-4l.25-2.08 33.36 4zM84.79 114.33c-12.82-1.68-25.63-3.26-38.42-4.64l.45-3.74c12 1.68 24.87 3.2 38.42 4.64a17.69 17.69 0 00-.45 3.74z" transform="translate(-25.07 -3.13)"></path>
    </g>
    <g id="Sun">
        <path class="cls-5" d="M174.63 50.2c.31-3.4 3.5-6.63 6.19-8.45a22.66 22.66 0 017.89-2.75c3-.49 5.76.95 8.28 2.31 1.81 1 5.17 4.43 6.65 9.22s-.74 9.77-2 11.89-7 5.49-9.53 6.28-6.58-.31-8.45-1a18.78 18.78 0 01-8-7.47c-1.58-3.35-1.35-6.52-1.03-10.03zM207.91 44.6l7.3-4.82a1.77 1.77 0 011.49.51 1.4 1.4 0 01-.07 1.57l-7.3 4.82A2.39 2.39 0 01208 46a1.08 1.08 0 01-.09-1.4zM191.14 33.81l-.08-.56v-3.13l.13-3.28s.2-.6 1.2-.59a1.62 1.62 0 011.35.53l-.13 3.28v3.27s-.17.87-1.42 1-1.23-.69-1.23-.69zM178.32 35.18l-3.64-8.72a1.22 1.22 0 01.8-1.16 1.77 1.77 0 011.51.09l3.64 8.72a1.15 1.15 0 01-.76 1.29 1.63 1.63 0 01-1.6-.36zM168.76 53l-11 .63a2.65 2.65 0 01-.58-1.34c-.13-1 .33-1.18.33-1.18l11-.49a2.31 2.31 0 01.67 1.33c.13 1-.43 1.19-.43 1.19zM180.14 73.08l-6.36 9.31a1.6 1.6 0 01-1.6 0 1.24 1.24 0 01-.54-1.46l6.36-9.31a1 1 0 011.43-.1 1.36 1.36 0 01.68 1.42zM192.53 75.76l.26 7.2s-.18.73-1.3.89a1.38 1.38 0 01-1.39-.85l-.26-7.2a1.33 1.33 0 011.34-.61 2.09 2.09 0 011.35.57zM204.2 69.2l5.42 6.51s.37.66-.53 1.35c-1 .85-1.39.19-1.39.19l-5.42-6.51a1.4 1.4 0 01.55-1.21 1.65 1.65 0 011.37-.33zM208.66 31.09l-4.54 5.6a1.41 1.41 0 01-1.56-.19A1.38 1.38 0 01202 35l4.54-5.6a1.33 1.33 0 011.41.42 2.09 2.09 0 01.71 1.27zM218.14 61.74l-7.14-.65a1.41 1.41 0 01-.71-1.4 1.38 1.38 0 011-1.27l7.18.65a1.33 1.33 0 01.43 1.4 2.09 2.09 0 01-.76 1.27zM166.53 36.39l5.56 4.61a1.41 1.41 0 01-.2 1.56 1.38 1.38 0 01-1.52.5l-5.56-4.59a1.33 1.33 0 01.44-1.4 2.09 2.09 0 011.28-.68zM171.64 64.22l-.43.36-.74.43-1.91 1.22-2.85 1.63s-.61.14-1.13-.71a1.62 1.62 0 01-.27-1.42l2.85-1.63 1.91-1.22.74-.43.11-.09a1.5 1.5 0 011.64.65c.72.87.07 1.4.07 1.4z" transform="translate(-25.07 -3.13)"></path>
    </g>
    <g id="Plane">
        <path class="cls-5" d="M156.71 11.2l-1-.71c-1.13-.5-2.19-1.13-3.47-.85-.35.07-4 1.7-7.86 3.26-3.89 1.84-6.44 2.41-7.5 3a46.22 46.22 0 006.51 2.62l5.38-2.69c2.9-1.49 6.37-3.26 7.29-3.61.28-.07.5-.92.71-1z" transform="translate(-25.07 -3.13)"></path>
        <path class="cls-5" d="M115.37 9.71a4.05 4.05 0 012.69-1.13 7.65 7.65 0 014 .57c1.56.71 33.7 13.73 34.69 14l.85.21a1.62 1.62 0 001.91-.42c1.06-1.27 3.75-4.32 4-4.67.64-.64 2.12-.57 2.9-.57s3.75-.5 2.83 1.63c-.5 1.06-4.46 9.63-5.52 11.33s-2.05 2.05-3.33 1.63c-.85-.28-13.59-5.38-14.58-5.66-.5-.14-1.42-.5-2.27-.71.42 1.13 1.13 2.9 1.84 4.67.21.64 3.75 9.84 3.75 11.19 0 1.91-3.11-.07-3.61-.35a12 12 0 01-2.27-1.35 46 46 0 01-3.74-7.08c-.92-2.12-4.46-9.06-5.1-10.34-1.77-.78-14.16-6.44-15.43-7.22-2.69-1.56-4.18-2.9-4.18-5.17 0 0 .35-.5.5-.64z" transform="translate(-25.07 -3.13)"></path>
        <path class="cls-5" d="M147.79 41.08c-1.84-5.88-4.11-11.54-6.37-17.27 0 0 3.89 1.35 4.81 1.63s13.73 5.38 14.65 5.66 1.27-.28 1.77-1.13c1-1.56 4.67-9.49 5.38-11-.42 0-1 .07-1.63.07a8.7 8.7 0 00-1.91.14c-.35.28-3 3.33-4 4.6a2.86 2.86 0 01-3.26.85l-.85-.21C155.22 24.09 123 11 121.45 10.28a7.24 7.24 0 00-3.45-.42 3.27 3.27 0 00-1.84.92l.07.14s0-.07.14.35c.64 1.84 1.63 2.12 3.33 3.11 1.35.78 15.72 7.29 15.72 7.29s4.32 8.5 5.31 10.83a46.78 46.78 0 003.47 6.65 23.76 23.76 0 003.52 1.85z" transform="translate(-25.07 -3.13)"></path>
        <path class="cls-6" d="M119.12 10.35a3.32 3.32 0 011.35.28c.64.35.35 2.19-.42 1.77-.35-.21-3.47-2-3.47-2l.64-1.13s1.2.78 1.84 1.13zM124.22 12.48a1 1 0 011 .92.82.82 0 01-.85.85c-.5 0-1.06-.35-1.06-.85a.88.88 0 01.85-.92zM129 14.81c.21 0 1 .07 1 .85s-.78.85-1 .85-1-.07-1-.85.82-.85 1-.85zM134.41 17.08c.5 0 .57.28.57.78s-.21.85-.64.85a.94.94 0 01-1-.85c.01-.5.66-.78 1.07-.78zM138.66 19.34c.57 0 1.13.28 1.13.85s-.64.85-1.2.85-.78-.35-.78-.85a.75.75 0 01.85-.85zM143 21c.57 0 1 .21 1 .78s-.42.78-1 .78-1-.28-1-.78.41-.78 1-.78zM147.72 22.74c.5 0 .92.21.92.71s-.21.85-.64.85-1.06-.35-1.06-.85.28-.71.78-.71zM152.25 24.09c.5 0 .71.35.71.85s-.42.71-.92.71-.85-.21-.85-.71.56-.85 1.06-.85z" transform="translate(-25.07 -3.13)"></path>
        <path class="cls-5" d="M165.42 32.23a12.76 12.76 0 011.27.71l.85.5a.77.77 0 01-.07.78.65.65 0 01-.64.28l-.78-.5a8.51 8.51 0 00-1.06-.57 1.5 1.5 0 010-.85.56.56 0 01.5-.35zM169.52 34.49l1.27.64.85.5a.77.77 0 01-.07.78.65.65 0 01-.64.28l-.78-.5a8.51 8.51 0 00-1.06-.57 1.5 1.5 0 010-.85.5.5 0 01.42-.35z" transform="translate(-25.07 -3.13)"></path>
        <path class="cls-6" d="M165.38 21.58l5.4 2.16a1.41 1.41 0 01-.07.72.7.7 0 01-.43.43l-5.4-2.16a1.11 1.11 0 01-.07-.79.8.8 0 01.58-.43z" transform="translate(-25.07 -3.13)"></path>
        <path class="cls-4" d="M178.71 38.51a12.82 12.82 0 011.28.71l.85.5a.77.77 0 01-.07.78.65.65 0 01-.64.28l-.78-.5a8.55 8.55 0 00-1.07-.57 1.5 1.5 0 010-.85.56.56 0 01.5-.36z" transform="translate(-25.07 -3.13)"></path>
        <path class="cls-6" d="M183.9 41a12.82 12.82 0 011.28.71l.85.5a.77.77 0 01-.03.79.65.65 0 01-.64.28l-.78-.5a8.55 8.55 0 00-1.07-.57 1.5 1.5 0 010-.85.5.5 0 01.39-.36zM188.88 43.13a5.32 5.32 0 011.28.64l.85.43a.9.9 0 010 .78.8.8 0 01-.64.36l-.85-.43a10 10 0 00-1.07-.5 1 1 0 010-.85.69.69 0 01.43-.43zM194.07 45.34a5.32 5.32 0 011.28.64l.85.43a.9.9 0 010 .78.8.8 0 01-.64.36l-.85-.43a10 10 0 00-1.07-.5 1 1 0 010-.85.69.69 0 01.43-.43zM198.69 47.19a5.32 5.32 0 011.28.64l.85.43a.9.9 0 010 .78.8.8 0 01-.64.36l-.85-.43a10 10 0 00-1.07-.5 1 1 0 010-.85.69.69 0 01.43-.43z" transform="translate(-25.07 -3.13)"></path>
        <path class="cls-4" d="M173.95 36.64l1.28.64.85.5a.77.77 0 01-.07.78.65.65 0 01-.64.28l-.78-.5a8.55 8.55 0 00-1.07-.57 1.5 1.5 0 010-.85.5.5 0 01.43-.36z" transform="translate(-25.07 -3.13)"></path>
    </g>
    <g id="Phone">
        <path class="cls-5" d="M224.54 71.17l10.56 11.61c1.61 1.86 1 3.91-.87 5.6-8.29 7-16.85 14.57-25.77 22.68-3.12 2.74-3.84 2.38-5.77.71l-10.92-10q-2.56-3.27.87-6.25c9.59-8.48 18.63-16.63 26.85-24.29 1.95-1.17 3.61-1.09 5.05-.06z" transform="translate(-25.07 -3.13)"></path>
        <path class="cls-6" d="M220.2 75q5.28 5.8 11.1 12.11-10.86 9.16-21.84 19.29c-4.39-4.45-8.58-8.6-11.55-11.13C206 88.05 213.66 81.13 220.2 75zM226.56 77.38l2.59 2.85c.48.56-.13 1.17-.8.68l-2.73-3c-.51-.62.21-1.26.94-.53zM201.79 101.8a2.12 2.12 0 10-2.64 3.32 2.12 2.12 0 102.64-3.32z" transform="translate(-25.07 -3.13)"></path>
        <path class="cls-5" d="M203.66 91.59l2.52 8.93-3.38-1.08-.15 6.98-1.65-9.57 2.95 1.22-.29-6.48zM209.94 86.58l6.91 5.91-2.88 1.58 3.75 5.19-6.7-6.41 2.95-.72-4.03-5.55zM214.49 79.26l10.41 2.03-2.6 2.57 6.92 2.59-9.55-2.15 2.58-2.34-7.76-2.7z"></path>
    </g>
    <g id="Girl">
        <path class="cls-5" d="M172.85 164.8l7.96-12.96-6.32-2.28-7.97 11.59 6.33 3.65z"></path>
        <path class="cls-9" d="M188.21 146.16c1.45.41 3.84 1.17 6.09 1.85 3.41 1 7.1 2.2 7.69 2.48s4.13 1.16 7.82 2 8.62 2 8.62 2-3.72 1.86-6.09 3c-1.5.67-3 1.42-4.51 2l-.43.15a.59.59 0 01-.5 0c-.43-.07-7.9-2.26-9.71-2.81l-2 3c2 .69 9.36 3.39 11.95 2.92 1.37-.24 10.06-2.39 11.93-2.85a6.89 6.89 0 003.29-1.93c.5-.51 3.85-7.27 4.9-9.6.91-2 .75-2.75.36-4.69-3.26-5.79-3.8-7.95-4.7-14.5-.32-2.23-.5-4.25-.66-5.26l-4.26 1.36a6.88 6.88 0 01.68 2.15c.24 1.37 1.86 8.19 2.84 11.21a14 14 0 002.82 4.79l-.78.81s-1.1-1.07-1.69-1.78a2.58 2.58 0 00-2-.84c-.94 0-5.19.22-5.77-.2a1 1 0 01-.37-.57l-.08-.22a5.34 5.34 0 00-.6-1.58c-3-5.65-4.51-12-7.42-17.7-.3-.57-.59-1.14-.74-1.5-1.5.82-6.15 3.2-8 3.88a4.32 4.32 0 00-2.41 2.49l-.28.44c-1.19 2.18-2.83 8.34-3.31 9.93-1.37 4.57-2.6 9-2.6 9l-.14.51z" transform="translate(-25.07 -3.13)"></path>
        <path class="cls-5" d="M197.45 145.88l2.64 3.14 1.26-2.77-3.9-.37z"></path>
        <path class="cls-5" d="M189.49 103.29l-.1 3.18c3.37 3.34 8.5 8.52 9.45 9.59a11.58 11.58 0 012.09 4.58l3.44-1.71-.52-1.07a12.67 12.67 0 00-1-1.79c-.44-.57-4.1-4.19-5.42-5.47-1.06-1.07-6.18-5.68-7.94-7.31zM162.63 143.09l1.84 2.14c2.81-.33 6.41-.75 6.91-.83.94-.16 8.79-.71 9.66-.58.43.07 2 .55 3.41 1l2.39.76 1.59-4.21a60.26 60.26 0 00-10.54-.56c-4 .28-12.81 1.93-15.33 2.4zM219.09 123.17v.65l3.31-.84c0-.43.05-1.3 0-1.66s-.23-.57-.95-.56-2.15.61-2.29 1-.13.87-.2 1.37z" transform="translate(-25.07 -3.13)"></path>
        <path class="cls-6" d="M209 143.6c0-.29.43-.44.79-.45a.62.62 0 01.59.57.53.53 0 01-.57.59c-.27 0-.81-.42-.81-.71zM212.36 145.28c0-.29.43-.44.79-.45a.62.62 0 01.59.57.57.57 0 01-.57.59c-.29.01-.8-.42-.81-.71zM215.91 146.31c0-.29.43-.44.79-.45a.62.62 0 01.59.57.53.53 0 01-.57.59c-.29-.02-.8-.43-.81-.71z" transform="translate(-25.07 -3.13)"></path>
        <path class="cls-11" d="M232 152.62s.64-.8.78-1 .8.2.44.64a6.1 6.1 0 00-.63 1z" transform="translate(-25.07 -3.13)"></path>
        <path class="cls-9" d="M230.15 152.22c-.58-.35-1.08-.06-1.65.53a7.69 7.69 0 00-.4 2.24c.09.94 3.68 5 4.68 4.26.36-.29.92-1.1 1.28-1.46.92-1.17.34-1.59-.26-2.52a19.31 19.31 0 00-3.65-3.05z" transform="translate(-25.07 -3.13)"></path>
        <path class="cls-11" d="M233.29 159.89a1.45 1.45 0 01-1.22.31 12.15 12.15 0 01-2.12-1.55l-1.1-.92c-.76 2-2.08.61-2.63 2.28-.21.65-.41 1.38-1.27 1.53-1.87.39-1.7 2.26-3.64 2.44a2.59 2.59 0 00-1.35 1.25 7.15 7.15 0 00.81 1.21c1.4 2.21 2.88 4.36 4.36 6.5l.21-.44c.49-1 1.25-3.34 2.18-3.93.21-.15.35-.65.42-.87l.21-.65c.34-1.09 1.28-1.1 2.06-1.76s.33-2.24 1.18-3l.29-.22.64-.51c.86-.66.86-.66.91-1.75z" transform="translate(-25.07 -3.13)"></path>
        <path class="cls-5" d="M231.27 155c.43-.44 1.67.84 1.25 1.28s-1.68-.83-1.25-1.28zM195.5 155.74a2.79 2.79 0 00-1.28-1c-.33-.09-1.19-.55-1.49-.27a19.27 19.27 0 00-1.43 2.08l2 2.37c.61-.92 2.19-3 2.16-3.19z" transform="translate(-25.07 -3.13)"></path>
        <path class="cls-4" d="M173.28 149.33l-1.94-.65-7.99 10.73 2.23 1.08 7.7-11.16z"></path>
    </g>
    <g id="Mortar_board" data-name="Mortar board">
        <path class="cls-7" d="M177.41 136.03l4.34 8.33-6.58-1.22 2.24-7.11z"></path>
        <path class="cls-7" d="M177.72 139.21l-.92 2.99 2.72.54-1.8-3.53z"></path>
        <path class="cls-4" d="M149.3 175a11.33 11.33 0 00-2.42 4.32c-.85 3.56-.87 5.1-.52 5.75a11.85 11.85 0 00.72 1.36c2.22-1.25 6.87-4.1 9-4.78a7.41 7.41 0 016 .91 10.91 10.91 0 001.28.84c0-5.41 2.31-6.39 6.6-9 .8-.5 2.31-1.38 3.67-2.1l1.75-1 .42-.22-.19-.36a15.34 15.34 0 01-.9-1.42 8.21 8.21 0 00-2.86-3 18.52 18.52 0 01-1.79-.65l-8.37 10.59-12.46-1.3z" transform="translate(-25.07 -3.13)"></path>
        <path class="cls-5" d="M126.81 148.76l-18.23 20.22 27.69 2.94 16.41-21.23-25.87-1.93z"></path>
        <path class="cls-7" d="M184.35 155a5.13 5.13 0 001.3-.69c1.24-.81 15-9 15-9l.63 1s-13.68 8.16-14.92 9c-.8.5-2.87 1.75-3.21 0v-.21a39.26 39.26 0 00-.16-5.31c-.21-1.26-1.33-.36-2 0-.47.25-.86.53-1.33.78-1.72.91-23.24 12.77-23.24 12.77l-.57-1.07s21.61-11.83 23.24-12.77c1.42-.75 4.52-3.08 5.08.12.37 1.85 0 3.63.16 5.46v.06z" transform="translate(-25.07 -3.13)"></path>
        <path class="cls-7" d="M155.81 160.93l1.39 2.91s.07.27-.41.52-.69 0-.69 0l-1.39-2.91a.79.79 0 01.44-.61.51.51 0 01.66.09z" transform="translate(-25.07 -3.13)"></path>
    </g>
    <g id="Book">
        <path class="cls-7" d="M59.85 122.63l22.74-6.09L96.75 141l-1.81.5-.58 6.41 1.54 1.7c-6.33 1.54-14 3.41-22.71 6.41-3.37.92-4.51-1.3-5.14-2.81l-10.8-21.78c-1.96-3.54-1.78-7.7 2.6-8.8z" transform="translate(-25.07 -3.13)"></path>
        <path class="cls-5" d="M94.4 141.54l-.23 1.6c-9.67 2.7-21.11 5.82-24.35 6.72a2.25 2.25 0 011-1.44z" transform="translate(-25.07 -3.13)"></path>
        <path class="cls-5" d="M69.03 140.49l-24.43 6.79-.27 1.37 24.53-7.06.17-1.1zM68.77 142.22l-24.47 6.99.19 1.16 24.2-6.82.08-1.33zM68.66 144.24l-.04.72-23.78 6.76-.36-.78 24.18-6.7z"></path>
        <path class="cls-5" d="M59.63 123.92l10.9 23.61-.16.25a220.77 220.77 0 01-11.19-23.86z" transform="translate(-25.07 -3.13)"></path>
    </g>
    <g id="Stars">
        <path class="cls-4" d="M100.72 19.12l-1.23 3.09-2.95.44 2.38 1.58-1.16 3.6 2.96-2.74 2.44 2.6-.86-3.82 1.73-1.58-2.59.14-.72-3.31zM68.55 51.78l-1 2.96-3.17.36 2.23 1.87-.65 3.74 2.81-2.88 2.52 2.59-.79-4.1 2.37-1.73-3.24.07-1.08-2.88zM109.54 181.22l1.22-3.46.79 3.46 3.17.43-2.52 1.23.58 4.61-2.52-2.74-2.67 2.09.79-3.75-2.23-1.87h3.39zM153.21 131.59l1-3.75 1.08 3.75h2.96l-2.38 1.36.57 3.39-2.16-2.31-2.37 2.67.43-3.75-2.16-1.36h3.03zM196.12 104.15l.79 3.68 3.46.21-2.96 2.02.36 3.88-2.66-2.95-3.1 2.88 1.37-3.89-2.52-2.59 3.75-.14 1.51-3.1z"></path>
    </g>
</svg>